<?xml version="1.0" encoding="iso-8859-1"?>
<!-- Generator: Adobe Illustrator 19.0.0, SVG Export Plug-In . SVG Version: 6.00 Build 0)  -->
<svg version="1.1" id="Layer_1" xmlns="http://www.w3.org/2000/svg" xmlns:xlink="http://www.w3.org/1999/xlink" x="0px" y="0px"
	 viewBox="0 0 511.997 511.997" style="enable-background:new 0 0 511.997 511.997;" xml:space="preserve">
<g>
	<g>
		<path d="M504.326,120.758c-46.317-9.897-92.91-17.518-153.513-2.293c-15.094,3.792-31.002,7.242-44.917,6.815
			c-7.774-0.238-15.524-2.048-23.019-3.801l-1.332-0.312c-48.633-11.335-103.232-19.621-172.834-3.647
			c-4.949,1.135-8.184,5.897-7.418,10.917l4,26.18c0.711,4.655,4.663,8.126,9.37,8.231c0.475,0.01,0.864,0.058,1.163,0.115
			c1.375,33.004,7.97,55.568,20.738,70.981c13.657,16.484,34.367,24.513,63.314,24.543c0.036,0,0.071,0,0.109,0
			c35.594,0,59.792-18.92,73.828-34.801c15.738-17.809,25.17-39.074,27.535-52.247c0.619-3.448,1.479-4.302,1.482-4.305
			c0.141-0.092,0.83-0.4,3.745-0.478c3.004-0.08,3.131-0.085,4.851,4.825c0.296,0.843,0.582,1.651,0.879,2.403
			c11.697,29.565,21.966,50.6,36.999,64.095c15.898,14.273,35.418,18.615,59.837,20.744c4.401,0.384,8.614,0.577,12.642,0.577
			c24.247,0,41.786-6.975,53.393-21.168c0.296-0.362,0.564-0.738,0.848-1.106c0.519,6.302,0.785,12.633,0.785,18.973
			c0,126.11-102.597,228.707-228.705,228.707S19.397,382.107,19.397,255.999S121.995,27.292,248.104,27.292
			c50.529,0,98.42,16.144,138.497,46.688c4.26,3.248,10.347,2.425,13.592-1.834c3.247-4.26,2.426-10.345-1.835-13.592
			C354.875,25.412,302.917,7.895,248.104,7.895C111.298,7.895,0,119.193,0,255.999s111.298,248.104,248.104,248.104
			c136.804,0,248.103-111.298,248.103-248.104c0-18.09-1.977-36.119-5.837-53.639c0.957-4.494,1.747-8.956,2.506-13.268
			c1.292-7.341,2.511-14.275,4.337-20.093c0.493-1.57,0.846-2.395,1.058-2.811c0.22-0.03,0.537-0.06,0.969-0.069
			c4.809-0.107,8.812-3.72,9.409-8.492l3.273-26.18C512.548,126.451,509.248,121.81,504.326,120.758z M490.25,148.438
			c-7.985,3.41-10.372,11.019-11.544,14.754c-2.205,7.021-3.53,14.558-4.935,22.54c-0.844,4.798-1.672,9.494-2.657,13.993
			c-0.092,0.326-0.167,0.658-0.225,0.994c-5.495,24.317-16.064,42.523-60.065,38.681c-45.576-3.974-57.611-14.838-80.484-72.651
			c-0.207-0.524-0.404-1.09-0.609-1.678c-1.88-5.369-6.238-17.816-22.767-17.816c-0.3,0-0.606,0.004-0.914,0.013
			c-5.515,0.149-20.165,0.543-23.793,20.745c-3.273,18.228-29.875,71.081-82.275,71.081c-0.026,0-0.058,0-0.084,0
			c-44.927-0.049-62.466-21.035-64.712-77.429c-0.31-7.828-4.771-13.859-11.73-16.598l-1.61-10.538
			c61.631-12.475,111.02-4.787,155.298,5.531l1.32,0.308c8.029,1.878,17.13,4.005,26.841,4.302
			c16.298,0.497,33.784-3.257,50.237-7.39c52.84-13.274,94.866-7.813,136.029,0.625L490.25,148.438z"/>
	</g>
</g>
<g>
	<g>
		<path d="M379.791,318.082c-5.285-0.877-10.277,2.698-11.155,7.981c-3.145,18.964-15.606,34.891-32.522,41.565
			c-17.362,6.846-37.119,3.744-51.566-8.104c-4.143-3.396-10.255-2.792-13.651,1.35c-3.396,4.142-2.792,10.253,1.35,13.649
			c12.894,10.573,28.862,16.086,45.011,16.086c8.757,0,17.57-1.622,25.973-4.937c23.22-9.159,40.287-30.785,44.542-56.435
			C388.65,323.953,385.077,318.959,379.791,318.082z"/>
	</g>
</g>
<g>
	<g>
		<circle cx="417.276" cy="87.39" r="9.699"/>
	</g>
</g>
<g>
</g>
<g>
</g>
<g>
</g>
<g>
</g>
<g>
</g>
<g>
</g>
<g>
</g>
<g>
</g>
<g>
</g>
<g>
</g>
<g>
</g>
<g>
</g>
<g>
</g>
<g>
</g>
<g>
</g>
</svg>
